<?xml version="1.0" standalone="no"?>
<!DOCTYPE svg PUBLIC "-//W3C//DTD SVG 20010904//EN"
 "http://www.w3.org/TR/2001/REC-SVG-20010904/DTD/svg10.dtd">
<svg version="1.0" xmlns="http://www.w3.org/2000/svg"
 width="260.000000pt" height="260.000000pt" viewBox="0 0 260.000000 260.000000"
 preserveAspectRatio="xMidYMid meet">
<metadata>
Created by potrace 1.14, written by Peter Selinger 2001-2017
</metadata>
<g transform="translate(0.000000,260.000000) scale(0.100000,-0.100000)"
fill="#000000" stroke="none">
<path d="M740 2308 c-36 -5 -81 -18 -100 -29 -19 -10 -53 -28 -76 -39 -41 -20
-204 -171 -204 -190 0 -5 -13 -29 -30 -52 -20 -30 -39 -82 -61 -171 -36 -142
-36 -150 11 -327 35 -133 155 -297 253 -346 18 -9 41 -24 52 -34 11 -10 71
-32 134 -50 142 -40 224 -38 374 8 53 17 106 28 116 25 37 -9 41 -44 41 -336
l0 -282 33 -55 c26 -44 44 -61 87 -83 l55 -28 340 3 340 3 53 28 c86 45 86 47
90 417 2 173 1 343 -3 377 -9 82 -36 122 -100 146 -44 17 -84 19 -354 21 -281
2 -304 3 -317 20 -15 21 -9 69 13 104 7 12 21 73 29 135 14 99 14 125 1 223
-8 60 -20 121 -28 136 -8 14 -27 49 -43 79 -16 29 -40 66 -55 81 -14 15 -35
36 -46 48 -52 54 -84 79 -135 104 -30 15 -66 33 -80 41 -56 31 -254 43 -390
23z"/>
</g>
</svg>
